<svg width="464" height="44" viewBox="0 0 464 44" fill="none" xmlns="http://www.w3.org/2000/svg">
<path d="M316 43.9914H304.312V27.9816C304.312 23.0694 302.698 21.1768 299.546 21.1768C295.709 21.1768 294.162 23.9469 294.162 27.9214V37.8232H297.855V44H286.176V27.9816C286.176 23.0694 284.57 21.1768 281.409 21.1768C277.573 21.1768 276.026 23.9469 276.026 27.9214V37.8232H281.333V44H264.304V37.8232H268.023V21.7446H264V15.5678H276.001V19.852C277.674 16.8324 280.581 15 284.477 15C288.491 15 292.218 16.9528 293.579 21.1166C295.126 17.34 298.286 15 302.681 15C307.693 15 312.281 18.0884 312.281 24.833V37.8232H315.992L316 43.9914Z" fill="black"/>
<path d="M379.24 44H354.222L353.399 39.6202L369.124 21.2933H360.178L358.903 25.796L353 25.1553L354.014 15H379.188L379.821 19.3711L363.931 37.7067H373.189L374.524 33.204L381 33.8447L379.24 44Z" fill="black"/>
<rect x="388" y="33" width="8" height="11" fill="black"/>
<rect x="388" y="15" width="8" height="11" fill="black"/>
<path d="M400 43L412.119 0H420L407.898 43H400Z" fill="black"/>
<path d="M417 43L429.11 0H437L424.898 43H417Z" fill="black"/>
<path fill-rule="evenodd" clip-rule="evenodd" d="M452.741 38.4457C453.116 41.8288 455.181 43.9916 458.925 43.9916V44C460.699 43.9748 462.439 43.5287 464 42.6872L463.94 38.4962C463.556 38.614 463.156 38.673 462.755 38.6814C461.441 38.6814 460.819 38.1259 460.819 36.5186V24.4338C460.819 18.0801 455.701 15 449.636 15C445.014 15 442.514 15.5638 437.576 17.5415L436.331 24.7536L442.762 25.4353L443.802 21.4884C445.116 20.8151 446.429 20.6889 448.118 20.6889C452.681 20.6889 452.741 24.0804 452.741 26.9164V27.8421C451.206 27.6654 449.662 27.5813 448.118 27.5981C441.687 27.5981 435 29.197 435 36.0389C435 41.8288 439.631 43.9916 443.683 43.9916C448.238 43.9916 451.112 41.2818 452.741 38.4457ZM446.634 38.3195C444.186 38.3195 443.316 36.9057 443.316 35.1132C443.316 32.092 445.815 31.2925 448.707 31.3009C450.063 31.3262 451.419 31.4524 452.758 31.6628C452.571 36.2829 449.509 38.3195 446.634 38.3195Z" fill="black"/>
<path fill-rule="evenodd" clip-rule="evenodd" d="M320 29.8748C320 38.7525 325.969 44 334.601 44C343.547 44 350.008 38.3819 350 29.5042C350 21.7299 345.082 15 335.025 15C324.969 15 320 21.7299 320 29.8748ZM328.267 29.3779C328.267 24.1304 330.811 21.1066 334.915 21.1066C338.705 21.1066 341.75 23.6335 341.758 29.2599C341.758 34.5664 339.028 37.8934 334.864 37.8934C330.506 37.8934 328.267 34.1873 328.267 29.3779Z" fill="black"/>
<path d="M21.003 23.2198C21.003 24.8468 19.7293 26.0984 18.1372 26.0984C16.5452 26.0984 15.2715 24.8468 15.2715 23.2198L15.2715 6.38664C15.2715 4.82221 16.5452 3.57067 18.1372 3.57067C19.7293 3.57067 21.003 4.82221 21.003 6.38664L21.003 23.2198Z" fill="black"/>
<path d="M18.1443 40.1599C22.5385 40.1599 26.9326 38.5329 30.3079 35.2163C37.0583 28.6457 37.0583 17.9451 30.3079 11.3119C29.1616 10.1855 27.3784 10.1855 26.2321 11.3119C25.0858 12.4383 25.0858 14.1905 26.2321 15.3168C30.69 19.6972 30.69 26.831 26.2321 31.2114C24.0032 33.4016 21.0738 34.528 18.1443 34.528C15.2149 34.528 12.2855 33.4016 10.0565 31.2114C5.5987 26.831 5.5987 19.6972 10.0565 15.3168C11.2028 14.1905 11.2028 12.4383 10.0565 11.3119C8.97392 10.1855 7.1271 10.1855 5.9808 11.3119C-0.769641 17.9451 -0.769641 28.6457 5.9808 35.2163C9.35602 38.5329 13.7502 40.1599 18.1443 40.1599Z" fill="black"/>
<path d="M68.975 7.12499C67.3829 7.12499 66.1093 8.37653 66.1093 9.94096V29.0269L48.0869 8.12622C47.5774 7.50045 46.7495 7.12499 45.8579 7.12499C44.2659 7.12499 42.9922 8.37653 42.9922 9.94096L42.9922 36.6613C42.9922 38.2258 44.2659 39.4773 45.8579 39.4773C47.45 39.4773 48.7237 38.2258 48.7237 36.6613V17.5753L66.7461 38.4761C67.2556 39.1018 68.0835 39.4773 68.9113 39.4773C70.5034 39.4773 71.7771 38.2258 71.7771 36.6613V9.94096C71.8408 8.37653 70.5671 7.12499 68.975 7.12499Z" fill="black"/>
<path fill-rule="evenodd" clip-rule="evenodd" d="M98.7782 7C94.7479 7 92 10.0649 92 13.6706C92 17.2763 94.7479 20.1609 98.7782 20.1609C102.808 20.1609 105.556 17.096 105.556 13.4903C105.556 9.88458 102.808 7 98.7782 7ZM98.7782 9.16344C101.343 9.16344 103.175 11.1466 103.175 13.6706C103.175 16.1946 101.343 18.1778 98.7782 18.1778C96.2134 18.1778 94.3815 16.1946 94.3815 13.6706C94.3815 11.1466 96.2134 9.16344 98.7782 9.16344ZM110.136 19.9806H112.334V10.9663L116.365 16.9158L120.395 10.9663V20.1609H122.593V7.36057H120.212L116.365 13.31L112.334 7.36057H109.953L110.136 19.9806ZM130.104 19.9806H127.906V7.18029H130.104V19.9806ZM135.417 7.18029H140.18C144.21 7.18029 147.141 9.88458 147.141 13.4903C147.141 17.096 144.393 19.8003 140.18 19.8003H135.417V7.18029ZM144.943 13.6706C144.943 16.1946 143.111 17.9975 140.363 17.9975H137.798V9.34372H140.363C143.111 9.34372 144.943 11.1466 144.943 13.6706ZM154.469 19.9806H156.85V14.9326L161.98 7.18029H159.232L155.568 12.7692L151.904 7.18029H149.156L154.286 14.9326V19.9806H154.469ZM170.04 7.18029H167.842L162.346 19.9806H164.728L166.01 16.9158H172.055L173.338 19.9806H175.719L170.04 7.18029ZM171.139 14.9326L168.941 9.88458L166.743 14.9326H171.139ZM185.245 7.18029H179.566V19.8003H181.765V15.2932H184.513L187.627 19.8003H190.375L186.894 14.9326C188.726 14.572 190.008 13.31 190.008 11.1466C190.008 10.0649 189.642 9.16344 188.909 8.44229C188.176 7.72115 186.894 7.18029 185.245 7.18029ZM185.062 13.4903C186.711 13.4903 187.81 12.5889 187.81 11.3269C187.81 9.88458 186.894 9.16344 185.062 9.16344H181.765V13.4903H185.062ZM94.1983 39.9924H92V27.1921H94.0151L100.976 36.0261V27.1921H103.175V39.9924H101.343L94.1983 30.9781V39.9924ZM108.121 39.9924H117.83V38.0093H110.503V34.5838H116.914V32.6007H110.503V29.3555H117.83V27.3724H108.304L108.121 39.9924ZM127.723 39.9924H125.341V29.3555H121.311V27.1921H131.753V29.3555H127.723V39.9924ZM139.264 39.9924H141.279L144.393 30.7978L147.508 39.9924H149.523L154.103 27.1921H151.721L148.607 36.567L145.492 27.0118H143.661L140.546 36.567L137.249 27.1921H134.867L139.264 39.9924ZM163.262 26.8315C159.232 26.8315 156.484 29.8964 156.484 33.5021C156.484 37.1078 159.232 40.1727 163.262 39.9924C167.292 39.9924 170.04 36.9276 170.04 33.3218C170.04 29.7161 167.292 26.8315 163.262 26.8315ZM167.659 33.5021C167.659 30.9781 165.827 28.995 163.262 28.995C160.697 28.995 158.866 30.9781 158.866 33.5021C158.866 36.0261 160.697 38.0093 163.262 38.0093C165.827 38.0093 167.659 36.0261 167.659 33.5021ZM179.933 27.1921H174.254V39.8121H176.452V35.305H179.2L182.314 39.8121H185.062L181.582 34.9444C183.413 34.5838 184.696 33.3218 184.696 31.1584C184.696 30.0767 184.329 29.1752 183.597 28.4541C182.864 27.7329 181.582 27.1921 179.933 27.1921ZM179.75 33.5021C181.398 33.5021 182.497 32.6007 182.497 31.3387C182.497 29.8964 181.582 29.1752 179.75 29.1752H176.452V33.5021H179.75ZM191.84 39.9924H189.642H189.459V27.3724H191.657V33.8627L197.886 27.3724H200.634L195.321 32.781L201 39.9924H198.252L193.855 34.2233L191.84 36.2064V39.9924Z" fill="black"/>
</svg>
